<?xml version="1.0" encoding="UTF-8" standalone="no"?>
<!DOCTYPE svg PUBLIC "-//W3C//DTD SVG 1.1//EN" "http://www.w3.org/Graphics/SVG/1.1/DTD/svg11.dtd">
<svg width="100%" height="100%" viewBox="0 0 394 394" version="1.1" xmlns="http://www.w3.org/2000/svg" xmlns:xlink="http://www.w3.org/1999/xlink" xml:space="preserve" xmlns:serif="http://www.serif.com/" style="fill-rule:evenodd;clip-rule:evenodd;stroke-linejoin:round;stroke-miterlimit:2;">
    <g id="Icon-2023" serif:id="Icon 2023" transform="matrix(2,0,0,2,0,-1)">
        <g>
            <rect x="0" y="0" width="197" height="198" style="fill:none;"/>
            <g transform="matrix(0.973586,-0.581366,0.581366,0.973586,-795.975,98.361)">
                <g id="Layer-1" serif:id="Layer 1">
                    <g>
                        <g transform="matrix(0.5,0,0,-0.5,2.57037,4068.08)">
                            <path d="M1331.68,7311.7C1335.45,7303.15 1343.77,7286.08 1343.77,7286.08C1359,7259.14 1381.8,7237.65 1414.67,7238.24C1421.67,7238.37 1428.75,7239.05 1435.51,7240.91C1441.96,7242.69 1448.01,7245.82 1453.91,7248.99C1470.8,7258.09 1482.4,7278.7 1487.59,7296.25C1489.01,7301.05 1489.88,7306.02 1490.55,7310.98C1491.23,7315.99 1491.45,7321.07 1491.66,7326.13C1491.78,7329.02 1489.74,7331.56 1486.88,7332.06C1484.03,7332.56 1481.24,7330.86 1480.38,7328.1C1479.6,7325.62 1478.83,7323.14 1477.84,7320.74C1475.96,7316.16 1473.31,7311.15 1470.06,7307.39C1457.79,7293.17 1443.13,7281.42 1423.43,7281.82C1407.87,7282.13 1396.78,7290.14 1388.1,7300.97C1378.66,7312.74 1371.98,7327.76 1365.89,7341.03C1362.12,7349.59 1358.14,7358.04 1353.96,7366.4C1353.85,7366.63 1353.71,7366.85 1353.57,7367.07C1338.34,7393.81 1315.6,7415.08 1282.9,7414.49C1275.9,7414.37 1268.82,7413.68 1262.07,7411.83C1255.61,7410.05 1249.56,7406.92 1243.66,7403.74C1226.77,7394.65 1215.17,7374.03 1209.98,7356.48C1208.56,7351.68 1207.69,7346.72 1207.02,7341.76C1206.34,7336.74 1206.12,7331.67 1205.91,7326.61C1205.79,7323.71 1207.83,7321.18 1210.69,7320.68C1213.54,7320.18 1216.33,7321.87 1217.19,7324.64C1217.97,7327.11 1218.74,7329.6 1219.73,7331.99C1221.62,7336.58 1224.26,7341.58 1227.51,7345.35C1236.73,7356.02 1247.17,7366.03 1261.29,7369.35C1265.49,7370.33 1269.83,7371 1274.14,7370.92C1287.54,7370.65 1297.41,7364.78 1305.29,7356.38C1313.83,7347.28 1320.12,7335.33 1325.89,7323.78C1327.86,7319.85 1329.79,7315.82 1331.68,7311.7Z" style="fill:url(#_Linear1);"/>
                        </g>
                        <g transform="matrix(0.5,0,0,0.5,2.57037,-3258.29)">
                            <path d="M1331.68,7311.7C1335.45,7303.15 1343.77,7286.08 1343.77,7286.08C1359,7259.14 1381.8,7237.65 1414.67,7238.24C1421.67,7238.37 1428.75,7239.05 1435.51,7240.91C1441.96,7242.69 1448.01,7245.82 1453.91,7248.99C1470.8,7258.09 1482.4,7278.7 1487.59,7296.25C1489.01,7301.05 1489.88,7306.02 1490.55,7310.98C1491.23,7315.99 1491.45,7321.07 1491.66,7326.13C1491.78,7329.02 1489.74,7331.56 1486.88,7332.06C1484.03,7332.56 1481.24,7330.86 1480.38,7328.1C1479.6,7325.62 1478.83,7323.14 1477.84,7320.74C1475.96,7316.16 1473.31,7311.15 1470.06,7307.39C1457.79,7293.17 1443.13,7281.42 1423.43,7281.82C1407.87,7282.13 1396.78,7290.14 1388.1,7300.97C1378.66,7312.74 1371.98,7327.76 1365.89,7341.03C1362.12,7349.59 1358.14,7358.04 1353.96,7366.4C1353.85,7366.63 1353.71,7366.85 1353.57,7367.07C1338.34,7393.81 1315.6,7415.08 1282.9,7414.49C1275.9,7414.37 1268.82,7413.68 1262.07,7411.83C1255.61,7410.05 1249.56,7406.92 1243.66,7403.74C1226.77,7394.65 1215.17,7374.03 1209.98,7356.48C1208.56,7351.68 1207.69,7346.72 1207.02,7341.76C1206.34,7336.74 1206.12,7331.67 1205.91,7326.61C1205.79,7323.71 1207.83,7321.18 1210.69,7320.68C1213.54,7320.18 1216.33,7321.87 1217.19,7324.64C1217.97,7327.11 1218.74,7329.6 1219.73,7331.99C1221.62,7336.58 1224.26,7341.58 1227.51,7345.35C1236.73,7356.02 1247.17,7366.03 1261.29,7369.35C1265.49,7370.33 1269.83,7371 1274.14,7370.92C1287.54,7370.65 1297.41,7364.78 1305.29,7356.38C1313.83,7347.28 1320.12,7335.33 1325.89,7323.78C1327.86,7319.85 1329.79,7315.82 1331.68,7311.7Z" style="fill:url(#_Linear2);"/>
                        </g>
                    </g>
                </g>
            </g>
        </g>
    </g>
    <defs>
        <linearGradient id="_Linear1" x1="0" y1="0" x2="1" y2="0" gradientUnits="userSpaceOnUse" gradientTransform="matrix(86.6841,-117.923,117.923,86.6841,1310.66,7378.18)"><stop offset="0" style="stop-color:rgb(41,80,220);stop-opacity:0.15"/><stop offset="1" style="stop-color:rgb(22,38,141);stop-opacity:0.3"/></linearGradient>
        <linearGradient id="_Linear2" x1="0" y1="0" x2="1" y2="0" gradientUnits="userSpaceOnUse" gradientTransform="matrix(-62.466,83.2305,-83.2305,-62.466,1392.1,7271.21)"><stop offset="0" style="stop-color:rgb(41,80,220);stop-opacity:1"/><stop offset="1" style="stop-color:rgb(22,38,141);stop-opacity:1"/></linearGradient>
    </defs>
</svg>
